<?xml version="1.0" encoding="UTF-8"?>
<svg width="56px" height="56px" viewBox="0 0 56 56" version="1.1" xmlns="http://www.w3.org/2000/svg" xmlns:xlink="http://www.w3.org/1999/xlink">
    <!-- Generator: Sketch 63.1 (92452) - https://sketch.com -->
    <title>ðŸŒŸicon/é‡‘åˆšåŒº/æ£€æŸ¥</title>
    <desc>Created with Sketch.</desc>
    <g id="1-å·¥ä½œå°" stroke="none" stroke-width="1" fill="none" fill-rule="evenodd">
        <g id="1.é¦–é¡µ-å·¥ä½œå°" transform="translate(-428.000000, -326.000000)">
            <rect id="åº•æ¿" fill="#E6E6E6" x="0" y="273" width="751" height="1012"></rect>
            <g id="logo" transform="translate(-19.000000, 0.000000)" fill="#D53434">
                <path d="M769,0 L769.003805,309.958676 C780.696662,315.496346 787,321.388738 787,327.5 C787,359.808658 610.824049,386 393.5,386 C176.175951,386 0,359.808658 0,327.5 C0,321.217855 6.66077386,315.166991 18.9896846,309.494978 L19,0 L769,0 Z" id="å½¢çŠ¶ç»“åˆ"></path>
            </g>
            <g id="é‡‘åˆšåŒº" transform="translate(30.000000, 297.000000)">
                <rect id="é‡‘åˆšåŒºåº•æ¿" fill="#FFFFFF" x="0" y="0" width="691" height="192" rx="20"></rect>
                <g id="ðŸŒŸicon/é‡‘åˆšåŒº/æ£€æŸ¥" transform="translate(398.000000, 29.000000)">
                    <g id="ç¼–ç»„">
                        <rect id="çŸ©å½¢å¤‡ä»½-2" fill="#000000" opacity="0" x="0" y="0" width="56" height="56"></rect>
                        <g id="æ£€æŸ¥" transform="translate(10.000000, 5.000000)">
                            <path d="M34.853125,34.255625 C34.946875,34.3514583 35,34.4808333 35,34.6165972 L35,44.4666667 C35,44.749375 34.7765625,44.9777778 34.5,44.9777778 L24.5,44.9777778 C24.2234375,44.9777778 24,44.749375 24,44.4666667 L24,31.1777778 C24,30.8950694 24.2234375,30.6666667 24.5,30.6666667 L31.1359375,30.6666667 C31.26875,30.6666667 31.396875,30.7209722 31.490625,30.8168056 L34.853125,34.255625 Z" id="å½¢çŠ¶" fill="#D53434" opacity="0.300000012"></path>
                            <path d="M35.5193182,11.5359375 C35.8261364,11.8439732 36,12.2598214 36,12.6962054 L36,44.3571429 C36,45.2658482 35.26875,46 34.3636364,46 L1.63636364,46 C0.73125,46 0,45.2658482 0,44.3571429 L0,1.64285714 C0,0.734151786 0.73125,0 1.63636364,0 L23.3539773,0 C23.7886364,0 24.2079545,0.174553571 24.5147727,0.482589286 L35.5193182,11.5359375 Z" id="å½¢çŠ¶" stroke="#333333" stroke-width="4"></path>
                            <polygon id="è·¯å¾„" fill="#333333" fill-rule="nonzero" points="32.4 13.8 22.5 4.6 22.5 13.8"></polygon>
                            <path d="M17.8,32.0977778 C18.79414,32.0977778 19.6,32.9215458 19.6,33.9377778 C19.6,34.9540098 18.79414,35.7777778 17.8,35.7777778 C16.80586,35.7777778 16,34.9540098 16,33.9377778 C16,32.9215458 16.80586,32.0977778 17.8,32.0977778 Z M19.15,17.3777778 C19.3985281,17.3777778 19.6,17.5754888 19.6,17.8193778 L19.6,17.8193778 L19.6,27.9761778 C19.6,28.2200667 19.3985281,28.4177778 19.15,28.4177778 L19.15,28.4177778 L16.45,28.4177778 C16.2014719,28.4177778 16,28.2200667 16,27.9761778 L16,27.9761778 L16,17.8193778 C16,17.5754888 16.2014719,17.3777778 16.45,17.3777778 L16.45,17.3777778 Z" id="å½¢çŠ¶ç»“åˆ" fill="#D53434"></path>
                        </g>
                    </g>
                </g>
                <g id="ðŸŒŸicon/é‡‘åˆšåŒº/æ£€æŸ¥" transform="translate(398.000000, 29.000000)">
                    <g id="ç¼–ç»„">
                        <rect id="çŸ©å½¢å¤‡ä»½-2" fill="#000000" opacity="0" x="0" y="0" width="56" height="56"></rect>
                        <g id="æ£€æŸ¥" transform="translate(10.000000, 5.000000)">
                            <path d="M34.853125,34.255625 C34.946875,34.3514583 35,34.4808333 35,34.6165972 L35,44.4666667 C35,44.749375 34.7765625,44.9777778 34.5,44.9777778 L24.5,44.9777778 C24.2234375,44.9777778 24,44.749375 24,44.4666667 L24,31.1777778 C24,30.8950694 24.2234375,30.6666667 24.5,30.6666667 L31.1359375,30.6666667 C31.26875,30.6666667 31.396875,30.7209722 31.490625,30.8168056 L34.853125,34.255625 Z" id="å½¢çŠ¶" fill="#D53434" opacity="0.300000012"></path>
                            <path d="M35.5193182,11.5359375 C35.8261364,11.8439732 36,12.2598214 36,12.6962054 L36,44.3571429 C36,45.2658482 35.26875,46 34.3636364,46 L1.63636364,46 C0.73125,46 0,45.2658482 0,44.3571429 L0,1.64285714 C0,0.734151786 0.73125,0 1.63636364,0 L23.3539773,0 C23.7886364,0 24.2079545,0.174553571 24.5147727,0.482589286 L35.5193182,11.5359375 Z" id="å½¢çŠ¶" stroke="#333333" stroke-width="4"></path>
                            <polygon id="è·¯å¾„" fill="#333333" fill-rule="nonzero" points="32.4 13.8 22.5 4.6 22.5 13.8"></polygon>
                            <path d="M17.8,32.0977778 C18.79414,32.0977778 19.6,32.9215458 19.6,33.9377778 C19.6,34.9540098 18.79414,35.7777778 17.8,35.7777778 C16.80586,35.7777778 16,34.9540098 16,33.9377778 C16,32.9215458 16.80586,32.0977778 17.8,32.0977778 Z M19.15,17.3777778 C19.3985281,17.3777778 19.6,17.5754888 19.6,17.8193778 L19.6,17.8193778 L19.6,27.9761778 C19.6,28.2200667 19.3985281,28.4177778 19.15,28.4177778 L19.15,28.4177778 L16.45,28.4177778 C16.2014719,28.4177778 16,28.2200667 16,27.9761778 L16,27.9761778 L16,17.8193778 C16,17.5754888 16.2014719,17.3777778 16.45,17.3777778 L16.45,17.3777778 Z" id="å½¢çŠ¶ç»“åˆ" fill="#D53434"></path>
                        </g>
                    </g>
                </g>
            </g>
        </g>
    </g>
</svg>