<?xml version="1.0" encoding="UTF-8"?>
<svg width="56px" height="56px" viewBox="0 0 56 56" version="1.1" xmlns="http://www.w3.org/2000/svg" xmlns:xlink="http://www.w3.org/1999/xlink">
    <!-- Generator: Sketch 63.1 (92452) - https://sketch.com -->
    <title>7AC17A30-512C-4521-893E-0DE1F2EFE4BB</title>
    <desc>Created with Sketch.</desc>
    <g id="æŽ§ä»¶" stroke="none" stroke-width="1" fill="none" fill-rule="evenodd">
        <g id="ðŸŒŸicon/é‡‘åˆšåŒº/è®¡åˆ’">
            <g id="ç¼–ç»„">
                <rect id="çŸ©å½¢å¤‡ä»½" fill="#000000" opacity="0" x="0" y="0" width="56" height="56"></rect>
                <g id="è®¡åˆ’" transform="translate(5.000000, 10.000000)">
                    <path d="M44.4969605,21.4054054 L40.7481003,21.4054054 C39.9436028,21.4054054 39.1571286,21.6397166 38.4804331,22.0817504 L37.6808511,22.601888 L36.881269,22.0817504 C36.206212,21.6397166 35.4180994,21.4054054 34.6136018,21.4054054 L30.8647416,21.4054054 C30.5747293,21.4054054 30.3404255,21.6430401 30.3404255,21.9371754 L30.3404255,31.3760934 C30.3404255,31.6702287 30.5747293,31.9078635 30.8647416,31.9078635 L34.6136018,31.9078635 C35.4180994,31.9078635 36.2045735,32.1421746 36.881269,32.5842085 L37.6087576,33.0594779 C37.6300579,33.0727722 37.6546353,33.0810811 37.6792126,33.0810811 C37.7037899,33.0810811 37.7283672,33.074434 37.7496676,33.0594779 L38.4771562,32.5842085 C39.1554901,32.1421746 39.9436028,31.9078635 40.7481003,31.9078635 L44.4969605,31.9078635 C44.7869728,31.9078635 45.0212766,31.6702287 45.0212766,31.3760934 L45.0212766,21.9371754 C45.0212766,21.6430401 44.7869728,21.4054054 44.4969605,21.4054054 Z" id="è·¯å¾„" fill="#D53434" opacity="0.300000012"></path>
                    <path d="M44.3571429,0 L32.6107143,0 C30.0899554,0 27.6256696,0.722459436 25.5053571,2.0853971 L23,3.68915457 L20.4946429,2.0853971 C18.3794643,0.722459436 15.9100446,0 13.3892857,0 L1.64285714,0 C0.734151786,0 0,0.732707088 0,1.63962425 L0,30.7429547 C0,31.6498719 0.734151786,32.382579 1.64285714,32.382579 L13.3892857,32.382579 C15.9100446,32.382579 18.3743304,33.1050384 20.4946429,34.4679761 L22.7741071,35.9333903 C22.8408482,35.9743809 22.9178571,36 22.9948661,36 C23.071875,36 23.1488839,35.9795047 23.215625,35.9333903 L25.4950893,34.4679761 C27.6205357,33.1050384 30.0899554,32.382579 32.6107143,32.382579 L44.3571429,32.382579 C45.2658482,32.382579 46,31.6498719 46,30.7429547 L46,1.63962425 C46,0.732707088 45.2658482,0 44.3571429,0 Z" id="è·¯å¾„" stroke="#333333" stroke-width="4"></path>
                    <path d="M16.4573846,19.1984179 C16.6471346,19.1984179 16.8028269,19.4189585 16.8028269,19.6849044 L16.8028269,22.6038233 L16.8076923,22.6038233 C16.8076923,22.8697693 16.652,23.0903098 16.46225,23.0903098 L7.42236538,23.0903098 C7.23261538,23.0903098 7.07692308,22.8697693 7.07692308,22.6038233 L7.07692308,19.6849044 C7.07692308,19.4189585 7.23261538,19.1984179 7.42236538,19.1984179 L16.4573846,19.1984179 Z M38.9115581,19.1984179 C39.1013081,19.1984179 39.2570004,19.4189585 39.2570004,19.6849044 L39.2570004,22.6038233 L39.2618658,22.6038233 C39.2618658,22.8697693 39.1061735,23.0903098 38.9164235,23.0903098 L29.8765389,23.0903098 C29.6867889,23.0903098 29.5310966,22.8697693 29.5310966,22.6038233 L29.5310966,19.6849044 C29.5310966,19.4189585 29.6867889,19.1984179 29.8765389,19.1984179 L38.9115581,19.1984179 Z M16.4573846,11.4146341 C16.6471346,11.4146341 16.8028269,11.6351747 16.8028269,11.9011206 L16.8028269,14.8200396 L16.8076923,14.8200396 C16.8076923,15.0859855 16.652,15.306526 16.46225,15.306526 L7.42236538,15.306526 C7.23261538,15.306526 7.07692308,15.0859855 7.07692308,14.8200396 L7.07692308,11.9011206 C7.07692308,11.6351747 7.23261538,11.4146341 7.42236538,11.4146341 L16.4573846,11.4146341 Z M38.9115581,11.4146341 C39.1013081,11.4146341 39.2570004,11.6351747 39.2570004,11.9011206 L39.2570004,14.8200396 L39.2618658,14.8200396 C39.2618658,15.0859855 39.1061735,15.306526 38.9164235,15.306526 L29.8765389,15.306526 C29.6867889,15.306526 29.5310966,15.0859855 29.5310966,14.8200396 L29.5310966,11.9011206 C29.5310966,11.6351747 29.6867889,11.4146341 29.8765389,11.4146341 L38.9115581,11.4146341 Z" id="å½¢çŠ¶ç»“åˆ" fill="#D53434"></path>
                </g>
            </g>
        </g>
    </g>
</svg>