<?xml version="1.0" encoding="UTF-8"?>
<svg width="56px" height="56px" viewBox="0 0 56 56" version="1.1" xmlns="http://www.w3.org/2000/svg" xmlns:xlink="http://www.w3.org/1999/xlink">
    <!-- Generator: Sketch 63.1 (92452) - https://sketch.com -->
    <title>A4F83697-B62D-4460-8F62-359EB8C98BA9</title>
    <desc>Created with Sketch.</desc>
    <g id="控件" stroke="none" stroke-width="1" fill="none" fill-rule="evenodd">
        <g id="🌟icon/金刚区/标准">
            <g id="编组">
                <rect id="矩形备份-3" fill="#000000" opacity="0" x="0" y="0" width="56" height="56"></rect>
                <g id="标准" transform="translate(6.000000, 6.000000)">
                    <path d="M33,29 C29.134375,29 26,32.134375 26,36 C26,39.865625 29.134375,43 33,43 C36.865625,43 40,39.865625 40,36 C40,32.134375 36.865625,29 33,29 Z" id="路径" fill="#D53434" opacity="0.300000012"></path>
                    <path d="M22,0 C9.85089286,0 0,9.85089286 0,22 C0,34.1491071 9.85089286,44 22,44 C34.1491071,44 44,34.1491071 44,22 C44,9.85089286 34.1491071,0 22,0 Z" id="路径" stroke="#333333" stroke-width="4"></path>
                    <path d="M10,18.5833333 C10,16.9270833 11.34375,15.5833333 13,15.5833333 C14.65625,15.5833333 16,16.9270833 16,18.5833333 C16,20.2395833 14.65625,21.5833333 13,21.5833333 C11.34375,21.5833333 10,20.2395833 10,18.5833333 Z" id="路径" fill="#D53434"></path>
                    <path d="M21.7916667,33.3333333 C17.6282016,33.3333333 14.2146472,30.24875 14.000387,26.385 C13.9906479,26.1741667 14.1659517,26 14.3899509,26 L16.7322044,26 C16.9367255,26 17.1120293,26.1466667 17.1266379,26.3391667 C17.3116808,28.6079167 19.332544,30.4 21.7916667,30.4 C24.2507893,30.4 26.276522,28.6079167 26.4566954,26.3391667 C26.471304,26.1466667 26.6466078,26 26.8511289,26 L29.1933824,26 C29.4173817,26 29.5926855,26.1741667 29.5829464,26.385 C29.3686862,30.24875 25.9551318,33.3333333 21.7916667,33.3333333 Z" id="路径" fill="#D53434"></path>
                    <path d="M31,21.5833333 C29.34375,21.5833333 28,20.2395833 28,18.5833333 C28,16.9270833 29.34375,15.5833333 31,15.5833333 C32.65625,15.5833333 34,16.9270833 34,18.5833333 C34,20.2395833 32.65625,21.5833333 31,21.5833333 Z" id="路径" fill="#D53434"></path>
                </g>
            </g>
        </g>
    </g>
</svg>