<?xml version="1.0" encoding="UTF-8"?>
<svg width="56px" height="56px" viewBox="0 0 56 56" version="1.1" xmlns="http://www.w3.org/2000/svg" xmlns:xlink="http://www.w3.org/1999/xlink">
    <!-- Generator: Sketch 63.1 (92452) - https://sketch.com -->
    <title>D6627CE0-F70A-4583-97A9-88C13C10C401</title>
    <desc>Created with Sketch.</desc>
    <g id="æŽ§ä»¶" stroke="none" stroke-width="1" fill="none" fill-rule="evenodd">
        <g id="ðŸŒŸicon/é‡‘åˆšåŒº/éšæ‚£">
            <g id="éšæ‚£">
                <rect id="çŸ©å½¢" fill="#000000" opacity="0" x="0" y="0" width="56" height="56"></rect>
                <g transform="translate(4.000000, 7.000000)" id="å½¢çŠ¶ç»“åˆ">
                    <path d="M40.7036724,27.9325711 L46.8533258,38.231294 C47.1931011,38.8003101 47.0072647,39.5370311 46.4382486,39.8768064 C46.2522535,39.9878692 46.0396624,40.0465116 45.823031,40.0465116 L33.5237243,40.0465116 C32.8609826,40.0465116 32.3237243,39.5092533 32.3237243,38.8465116 C32.3237243,38.6298803 32.3823667,38.4172891 32.4934295,38.231294 L38.6430829,27.9325711 C38.9828582,27.363555 39.7195792,27.1777186 40.2885953,27.5174939 C40.4591834,27.6193568 40.6018095,27.761983 40.7036724,27.9325711 Z" fill="#D53434" opacity="0.200000003"></path>
                    <path d="M27.4306238,2.79158379 L47.3072485,35.9431042 C48.4432406,37.8377855 47.8282016,40.2946317 45.9335204,41.4306238 C45.3121097,41.8032024 44.60117,42 43.8766246,42 L4.12337537,42 C1.91423637,42 0.123375371,40.209139 0.123375371,38 C0.123375371,37.2754546 0.320172972,36.5645149 0.692751548,35.9431042 L20.5693762,2.79158379 C21.7053683,0.896902573 24.1622145,0.281863571 26.0568958,1.41785573 C26.6207371,1.75591755 27.092562,2.22774243 27.4306238,2.79158379 Z" stroke="#333333" stroke-width="4"></path>
                    <path d="M23.4546503,29.1382021 C24.505996,29.1382021 25.3582801,29.9904862 25.3582801,31.0418319 L25.3582801,32.2824166 C25.3582801,33.3337624 24.505996,34.1860465 23.4546503,34.1860465 C22.4033045,34.1860465 21.5510204,33.3337624 21.5510204,32.2824166 L21.5510204,31.0418319 C21.5510204,29.9904862 22.4033045,29.1382021 23.4546503,29.1382021 Z M23.5657579,14.6511628 C24.6171036,14.6511628 25.4693878,15.5034469 25.4693878,16.5547927 L25.4693878,24.5258366 C25.4693878,25.5771824 24.6171036,26.4294665 23.5657579,26.4294665 C22.5144121,26.4294665 21.662128,25.5771824 21.662128,24.5258366 L21.662128,16.5547927 C21.662128,15.5034469 22.5144121,14.6511628 23.5657579,14.6511628 Z" fill="#D53434"></path>
                </g>
            </g>
        </g>
    </g>
</svg>