<?xml version="1.0" encoding="UTF-8"?>
<svg width="56px" height="56px" viewBox="0 0 56 56" version="1.1" xmlns="http://www.w3.org/2000/svg" xmlns:xlink="http://www.w3.org/1999/xlink">
    <!-- Generator: Sketch 63.1 (92452) - https://sketch.com -->
    <title>78CD1DA2-3101-49E9-B1C7-6BD78A1BD759</title>
    <desc>Created with Sketch.</desc>
    <g id="控件" stroke="none" stroke-width="1" fill="none" fill-rule="evenodd">
        <g id="🌟icon/金刚区/建议">
            <g id="编组">
                <rect id="矩形" fill="#000000" opacity="0" x="0" y="0" width="56" height="56"></rect>
                <g id="建议" transform="translate(12.000000, 5.000000)">
                    <path d="M17.25,34.0809211 C15.3079268,32.9618421 14,30.8697368 14,28.4736842 C14,24.8993421 16.911128,22 20.5,22 C24.088872,22 27,24.8993421 27,28.4736842 C27,30.8697368 25.6920732,32.9618421 23.75,34.0809211 L23.75,36.3684211 C23.75,36.7177632 23.4666159,37 23.1158537,37 L17.8841463,37 C17.5333841,37 17.25,36.7177632 17.25,36.3684211 L17.25,34.0809211 Z" id="路径" fill="#D53434" opacity="0.300000012"></path>
                    <path d="M8.25,30.0883317 C3.32012195,27.3011917 0,22.0906653 0,16.123138 C0,7.22100298 7.38978659,3.55271368e-15 16.5,3.55271368e-15 C25.6102134,3.55271368e-15 33,7.22100298 33,16.123138 C33,22.0906653 29.679878,27.3011917 24.75,30.0883317 L24.75,35.7855015 C24.75,36.6555611 24.0306402,37.3584906 23.1402439,37.3584906 L9.8597561,37.3584906 C8.96935976,37.3584906 8.25,36.6555611 8.25,35.7855015 L8.25,30.0883317 Z" id="路径" stroke="#333333" stroke-width="4"></path>
                    <path d="M10.5504808,41.6037736 L22.4495192,41.6037736 C22.6676683,41.6037736 22.8461538,41.8037736 22.8461538,42.048218 L22.8461538,43.8259958 C22.8461538,44.8093291 22.1371695,45.6037736 21.2596154,45.6037736 L11.7403846,45.6037736 C10.8628305,45.6037736 10.1538462,44.8093291 10.1538462,43.8259958 L10.1538462,42.048218 C10.1538462,41.8037736 10.3323317,41.6037736 10.5504808,41.6037736 Z" id="路径" fill="#D53434"></path>
                </g>
            </g>
        </g>
    </g>
</svg>