<?xml version="1.0" encoding="UTF-8"?>
<svg width="42px" height="42px" viewBox="0 0 42 42" version="1.1" xmlns="http://www.w3.org/2000/svg" xmlns:xlink="http://www.w3.org/1999/xlink">
    <!-- Generator: Sketch 63.1 (92452) - https://sketch.com -->
    <title>DD75129A-11E2-446E-8638-1AB4B4CADFCC</title>
    <desc>Created with Sketch.</desc>
    <g id="控件" stroke="none" stroke-width="1" fill="none" fill-rule="evenodd">
        <g id="🌟icon/我的/未选">
            <rect id="矩形备份-7" fill="#D8D8D8" opacity="0" x="0" y="0" width="42" height="42"></rect>
            <path d="M21,25 C17.9980082,25 13.2706896,26.0237737 9.80847208,28.0603755 C7.75658023,29.2673726 6,30.8327456 6,33.0000161 L6,36 L36,36 L36,33.0000161 C36,30.8327492 34.2434181,29.2673792 32.1915279,28.060383 C28.7293027,26.0237766 24.0019735,25 21,25 Z M21.5000206,6 C19.7043981,6 18.0792714,6.7269903 16.9031294,7.90312946 C15.7269922,9.07926386 15,10.7043803 15,12.5 C15,14.2956239 15.7269856,15.920745 16.9031241,17.0968806 C18.0792619,18.2730156 19.7043866,19 21.5000206,19 C23.2956369,19 24.9207508,18.2730137 26.0968821,17.0968795 C27.2730153,15.9207436 28,14.2956232 28,12.5 C28,10.7043768 27.2730153,9.0792564 26.0968821,7.90312045 C24.9207508,6.72698625 23.2956369,6 21.5000206,6 Z" id="形状" stroke="#DDDDDD" stroke-width="4" fill-rule="nonzero"></path>
        </g>
    </g>
</svg>