<?xml version="1.0" encoding="UTF-8"?>
<svg width="42px" height="42px" viewBox="0 0 42 42" version="1.1" xmlns="http://www.w3.org/2000/svg" xmlns:xlink="http://www.w3.org/1999/xlink">
    <!-- Generator: Sketch 63.1 (92452) - https://sketch.com -->
    <title>68B602E7-A3B2-49AA-B05B-7CA4C6FB0919</title>
    <desc>Created with Sketch.</desc>
    <g id="控件" stroke="none" stroke-width="1" fill="none" fill-rule="evenodd">
        <g id="🌟icon/我的/已选">
            <path d="M21.5000206,21 C26.1962529,21 30,17.1962437 30,12.5 C30,7.80375627 26.1962529,4 21.5000206,4 C16.8037882,4 13,7.80375627 13,12.5 C13,17.1962437 16.8037471,21 21.5000206,21 Z M4,33.0000161 L4,36 C4,37.1045695 4.8954305,38 6,38 L36,38 C37.1045695,38 38,37.1045695 38,36 L38,33.0000161 L38,33.0000161 C38,26.3500182 26.6737143,23 21,23 C15.3262445,23 4,26.3500182 4,33.0000161 Z" id="形状" fill="#333333" fill-rule="nonzero"></path>
            <rect id="矩形备份-7" fill="#D8D8D8" opacity="0" x="0" y="0" width="42" height="42"></rect>
        </g>
    </g>
</svg>