<?xml version="1.0" encoding="UTF-8"?>
<svg width="42px" height="42px" viewBox="0 0 42 42" version="1.1" xmlns="http://www.w3.org/2000/svg" xmlns:xlink="http://www.w3.org/1999/xlink">
    <!-- Generator: Sketch 63.1 (92452) - https://sketch.com -->
    <title>3F710B9E-3E9F-4640-9D2B-84489920C1A2</title>
    <desc>Created with Sketch.</desc>
    <g id="æŽ§ä»¶" stroke="none" stroke-width="1" fill="none" fill-rule="evenodd">
        <g id="ðŸŒŸicon/å¾…åŠž/æœªé€‰">
            <rect id="çŸ©å½¢å¤‡ä»½-7" fill="#D8D8D8" opacity="0" x="0" y="0" width="42" height="42"></rect>
            <path d="M35,6 L7,6 C6.44771525,6 5.94771525,6.22385763 5.58578644,6.58578644 C5.22385763,6.94771525 5,7.44771525 5,8 L5,28.9693828 C5,29.5216676 5.22385763,30.0216676 5.58578644,30.3835964 C5.94771525,30.7455252 6.44771525,30.9693828 7,30.9693828 L16.9917145,30.9689542 L19.3376148,34.4723019 C19.4834115,34.69015 19.6701825,34.876921 19.8876192,35.0224423 C20.3465982,35.3296178 20.8866331,35.421675 21.3887171,35.3221936 C21.8908012,35.2227122 22.3549343,34.9316922 22.6621098,34.4727133 L25.0069463,30.9689542 L35.0000858,30.9693829 C35.5522847,30.9693828 36.0522847,30.7455252 36.4142136,30.3835964 C36.7761424,30.0216676 37,29.5216676 37,28.9693828 L37,8 C37,7.44771525 36.7761424,6.94771525 36.4142136,6.58578644 C36.0522847,6.22385763 35.5522847,6 35,6 Z" id="å½¢çŠ¶ç»“åˆ" stroke="#DDDDDD" stroke-width="4"></path>
            <rect id="çŸ©å½¢" stroke="#DDDDDD" stroke-width="4" x="11" y="15" width="8" height="1" rx="0.5"></rect>
            <rect id="çŸ©å½¢å¤‡ä»½-6" stroke="#DDDDDD" stroke-width="4" x="11" y="23" width="16" height="1" rx="0.5"></rect>
        </g>
    </g>
</svg>