<?xml version="1.0" encoding="UTF-8"?>
<svg width="42px" height="42px" viewBox="0 0 42 42" version="1.1" xmlns="http://www.w3.org/2000/svg" xmlns:xlink="http://www.w3.org/1999/xlink">
    <!-- Generator: Sketch 63.1 (92452) - https://sketch.com -->
    <title>9B5B8869-D2BE-48CA-A511-7324E391FAA7</title>
    <desc>Created with Sketch.</desc>
    <g id="æŽ§ä»¶" stroke="none" stroke-width="1" fill="none" fill-rule="evenodd">
        <g id="ðŸŒŸicon/å·¥ä½œå°/æœªé€‰">
            <rect id="çŸ©å½¢å¤‡ä»½-7" fill="#D8D8D8" opacity="0" x="0" y="0" width="42" height="42"></rect>
            <path d="M39,26 C39,28.209139 37.209139,30 35,30 L23,30 L23,34 L30,34 C31.1045695,34 32,34.8954305 32,36 C32,37.1045695 31.1045695,38 30,38 L12,38 C10.8954305,38 10,37.1045695 10,36 C10,34.8954305 10.8954305,34 12,34 L19,34 L19,30 L7,30 C4.790861,30 3,28.209139 3,26 L3,8 C3,5.790861 4.790861,4 7,4 L35,4 C37.209139,4 39,5.790861 39,8 L39,26 Z M35,22 L7,22 L7,25 C7,25.5128358 7.38604019,25.9355072 7.88337887,25.9932723 L8,26 L34,26 C34.5522847,26 35,25.5522847 35,25 L35,25 L35,22 Z M34,8 L8,8 C7.44771525,8 7,8.44771525 7,9 L7,9 L7,19 L35,19 L35,9 C35,8.48716416 34.6139598,8.06449284 34.1166211,8.00672773 L34,8 Z" id="å·¥ä½œå°" fill="#DDDDDD"></path>
        </g>
    </g>
</svg>