<?xml version="1.0" encoding="UTF-8"?>
<svg width="42px" height="42px" viewBox="0 0 42 42" version="1.1" xmlns="http://www.w3.org/2000/svg" xmlns:xlink="http://www.w3.org/1999/xlink">
    <!-- Generator: Sketch 63.1 (92452) - https://sketch.com -->
    <title>B9DDD3AF-4323-44E1-B6FD-00788406D05B</title>
    <desc>Created with Sketch.</desc>
    <g id="æŽ§ä»¶" stroke="none" stroke-width="1" fill="none" fill-rule="evenodd">
        <g id="ðŸŒŸicon/å·¥ä½œå°/å·²é€‰">
            <rect id="çŸ©å½¢å¤‡ä»½-7" fill="#D8D8D8" opacity="0" x="0" y="0" width="42" height="42"></rect>
            <path d="M20.9994356,28.713964 L35.000046,28.7142857 C35.5522847,28.7142857 36.0522847,28.4904281 36.4142136,28.1284993 C36.7761424,27.7665705 37,27.2665705 37,26.7142857 L37,24 L5,24 L5,26.7142857 C5,27.2665705 5.22385763,27.7665705 5.58578644,28.1284993 C5.94771525,28.4904281 6.44771525,28.7142857 7,28.7142857 L20.9994356,28.713964 Z M35,6 L7,6 C6.44771525,6 5.94771525,6.22385763 5.58578644,6.58578644 C5.22385763,6.94771525 5,7.44771525 5,8 L5,17 L37,17 L37,8 C37,7.44771525 36.7761424,6.94771525 36.4142136,6.58578644 C36.0522847,6.22385763 35.5522847,6 35,6 Z" id="å½¢çŠ¶ç»“åˆ" stroke="#333333" stroke-width="4" fill="#333333"></path>
        </g>
    </g>
</svg>